<svg version="1.1" xmlns="http://www.w3.org/2000/svg" xmlns:xlink="http://www.w3.org/1999/xlink" viewBox="0,0,256,256"><g fill="#000000" fill-rule="nonzero" stroke="none" stroke-width="1" stroke-linecap="butt" stroke-linejoin="miter" stroke-miterlimit="10" stroke-dasharray="" stroke-dashoffset="0" font-family="none" font-weight="none" font-size="none" text-anchor="none" style="mix-blend-mode: normal"><g transform="scale(2.56,2.56)"><path d="M22,17c-2.74952,0 -5,2.25048 -5,5v56c0,2.74952 2.25048,5 5,5h56c2.74952,0 5,-2.25048 5,-5v-56c0,-2.74952 -2.25048,-5 -5,-5zM22,19h56c1.66848,0 3,1.33152 3,3v56c0,1.66848 -1.33152,3 -3,3h-56c-1.66848,0 -3,-1.33152 -3,-3v-56c0,-1.66848 1.33152,-3 3,-3zM22.5,22c-0.18032,-0.00255 -0.34804,0.09219 -0.43894,0.24794c-0.0909,0.15575 -0.0909,0.34838 0,0.50413c0.0909,0.15575 0.25863,0.25049 0.43894,0.24794h9c0.18032,0.00255 0.34804,-0.09219 0.43894,-0.24794c0.0909,-0.15575 0.0909,-0.34838 0,-0.50413c-0.0909,-0.15575 -0.25863,-0.25049 -0.43894,-0.24794zM36.5,22c-0.18032,-0.00255 -0.34804,0.09219 -0.43894,0.24794c-0.0909,0.15575 -0.0909,0.34838 0,0.50413c0.0909,0.15575 0.25863,0.25049 0.43894,0.24794h41c0.18032,0.00255 0.34804,-0.09219 0.43894,-0.24794c0.0909,-0.15575 0.0909,-0.34838 0,-0.50413c-0.0909,-0.15575 -0.25863,-0.25049 -0.43894,-0.24794zM25.5,34.99805c-0.27613,0.00003 -0.49997,0.22387 -0.5,0.5v29c0.00003,0.27613 0.22387,0.49997 0.5,0.5h13.84375c3.01164,0 5.65661,-0.82839 7.57031,-2.28711c1.91371,-1.45872 3.08594,-3.57039 3.08594,-6.01563c0,-5.25593 -4.17941,-7.26559 -5.19531,-7.71484c0.79708,-0.56935 3.19531,-2.42375 3.19531,-5.70508c0,-2.0755 -0.75925,-4.15915 -2.38281,-5.71484c-1.62356,-1.5557 -4.09361,-2.5625 -7.43164,-2.5625zM51.5,35c-0.27613,0.00003 -0.49997,0.22387 -0.5,0.5v29c0.00003,0.27613 0.22387,0.49997 0.5,0.5h5c0.27613,-0.00003 0.49997,-0.22387 0.5,-0.5v-2.80273c0.96345,1.12115 3.12428,3.30273 7.25,3.30273c6.25,0 10.75,-4.78205 10.75,-11.5c0,-6.71795 -4.5,-11.5 -10.75,-11.5c-4.12572,0 -6.28655,2.18158 -7.25,3.30273v-9.80273c-0.00003,-0.27613 -0.22387,-0.49997 -0.5,-0.5zM26,35.99805h12.18555c3.13897,0 5.32554,0.9296 6.74023,2.28516c1.41469,1.35556 2.07422,3.15869 2.07422,4.99219c0,3.17538 -3.2832,5.3457 -3.2832,5.3457c-0.15897,0.10245 -0.24653,0.28582 -0.22628,0.47386c0.02025,0.18803 0.14485,0.34856 0.32198,0.41481c0,0 5.1875,1.94011 5.1875,7.18555c0,2.13077 -0.98686,3.92142 -2.69141,5.2207c-1.70455,1.29928 -4.13748,2.08203 -6.96484,2.08203h-13.34375zM52,36h4v10.5c0.00004,0.21902 0.1426,0.41252 0.35177,0.47747c0.20917,0.06494 0.43626,-0.01378 0.56034,-0.19426c0,0 2.60456,-3.7832 7.33789,-3.7832c5.75,0 9.75,4.21795 9.75,10.5c0,6.28205 -4,10.5 -9.75,10.5c-4.73333,0 -7.33789,-3.7832 -7.33789,-3.7832c-0.12408,-0.18048 -0.35117,-0.25921 -0.56034,-0.19426c-0.20917,0.06494 -0.35173,0.25845 -0.35177,0.47747v3.5h-4zM30.5,40c-0.27613,0.00003 -0.49997,0.22387 -0.5,0.5v7c0.00003,0.27613 0.22387,0.49997 0.5,0.5h7.18555c1.5349,0 2.84472,-0.4137 3.79102,-1.125c0.94629,-0.7113 1.52344,-1.74244 1.52344,-2.875c0,-1.13256 -0.57714,-2.1637 -1.52344,-2.875c-0.94629,-0.7113 -2.25612,-1.125 -3.79102,-1.125zM31,41h6.68555c1.3541,0 2.4505,0.36838 3.18945,0.92383c0.73896,0.55545 1.125,1.27573 1.125,2.07617c0,0.80044 -0.38604,1.52072 -1.125,2.07617c-0.73896,0.55545 -1.83535,0.92383 -3.18945,0.92383h-6.68555zM63.5,46c-3.62923,0 -6.5,3.40241 -6.5,7.5c0,4.09759 2.87077,7.5 6.5,7.5c3.62923,0 6.5,-3.40241 6.5,-7.5c0,-4.09759 -2.87077,-7.5 -6.5,-7.5zM63.5,47c2.99877,0 5.5,2.86559 5.5,6.5c0,3.63441 -2.50123,6.5 -5.5,6.5c-2.99877,0 -5.5,-2.86559 -5.5,-6.5c0,-3.63441 2.50123,-6.5 5.5,-6.5zM30.5,52c-0.27613,0.00003 -0.49997,0.22387 -0.5,0.5v7c0.00003,0.27613 0.22387,0.49997 0.5,0.5h8.41406c1.42587,0 2.68048,-0.41927 3.5957,-1.13086c0.91522,-0.71159 1.49023,-1.73615 1.49023,-2.86914c0,-1.13299 -0.57501,-2.15755 -1.49023,-2.86914c-0.91522,-0.71159 -2.16983,-1.13086 -3.5957,-1.13086zM31,53h7.91406c1.22913,0 2.26839,0.36476 2.98242,0.91992c0.71403,0.55516 1.10352,1.28007 1.10352,2.08008c0,0.80001 -0.38949,1.52492 -1.10352,2.08008c-0.71403,0.55516 -1.75329,0.91992 -2.98242,0.91992h-7.91406zM22.5,77c-0.18032,-0.00255 -0.34804,0.09219 -0.43894,0.24794c-0.0909,0.15575 -0.0909,0.34838 0,0.50413c0.0909,0.15575 0.25863,0.25049 0.43894,0.24794h43c0.18032,0.00255 0.34804,-0.09219 0.43894,-0.24794c0.0909,-0.15575 0.0909,-0.34838 0,-0.50413c-0.0909,-0.15575 -0.25863,-0.25049 -0.43894,-0.24794zM68.5,77c-0.18032,-0.00255 -0.34804,0.09219 -0.43894,0.24794c-0.0909,0.15575 -0.0909,0.34838 0,0.50413c0.0909,0.15575 0.25863,0.25049 0.43894,0.24794h4c0.18032,0.00255 0.34804,-0.09219 0.43894,-0.24794c0.0909,-0.15575 0.0909,-0.34838 0,-0.50413c-0.0909,-0.15575 -0.25863,-0.25049 -0.43894,-0.24794zM75.5,77c-0.18032,-0.00255 -0.34804,0.09219 -0.43894,0.24794c-0.0909,0.15575 -0.0909,0.34838 0,0.50413c0.0909,0.15575 0.25863,0.25049 0.43894,0.24794h2c0.18032,0.00255 0.34804,-0.09219 0.43894,-0.24794c0.0909,-0.15575 0.0909,-0.34838 0,-0.50413c-0.0909,-0.15575 -0.25863,-0.25049 -0.43894,-0.24794z"></path></g></g></svg>
